<svg xmlns="http://www.w3.org/2000/svg" xmlns:xlink="http://www.w3.org/1999/xlink" width="1280" height="627" version="1.1">
<style type="text/css">
.l0{
  fill: #ffffff;
  stroke: #ffffff;
  stroke-linecap:round;
  stroke-linejoin:round;
  stroke-width: 1.59341;
}
.l1{
  fill: #0055ee;
  stroke: #0055ee;
  stroke-linecap:round;
  stroke-linejoin:round;
  stroke-width: 1.59341;
}
.l2{
  fill: #aaaaaa; fill-opacity: 0.2;
  stroke: #aaaaaa;
  stroke-linecap:round;
  stroke-linejoin:round;
  stroke-width: 1.59341;
}
.l3{
  fill: #222222; fill-opacity: 0.5;
  stroke: #222222;
  stroke-linecap:round;
  stroke-linejoin:round;
  stroke-width: 1.59341;
}
.l4{
  fill: #229900;
  stroke: #229900;
  stroke-linecap:round;
  stroke-linejoin:round;
  stroke-width: 1.59341;
}
.l5{
  fill: #bb2200;
  stroke: #bb2200;
  stroke-linecap:round;
  stroke-linejoin:round;
  stroke-width: 1.59341;
}
.l6{
  fill: #0055ee; fill-opacity: 0.5;
  stroke: #0055ee;
  stroke-linecap:round;
  stroke-linejoin:round;
  stroke-width: 1.59341;
}
.l7{
  fill: #ff0000; fill-opacity: 0.5;
  stroke: #ff0000;
  stroke-linecap:round;
  stroke-linejoin:round;
  stroke-width: 1.59341;
}
.l8{
  fill: #888800; fill-opacity: 0.5;
  stroke: #888800;
  stroke-linecap:round;
  stroke-linejoin:round;
  stroke-width: 1.59341;
}
.l9{
  fill: #00aaaa; fill-opacity: 0.5;
  stroke: #00aaaa;
  stroke-linecap:round;
  stroke-linejoin:round;
  stroke-width: 1.59341;
}
.l10{
  fill: #880088;
  stroke: #880088;
  stroke-linecap:round;
  stroke-linejoin:round;
  stroke-width: 1.59341;
}
.l11{
  fill: #00ff00; fill-opacity: 0.5;
  stroke: #00ff00;
  stroke-linecap:round;
  stroke-linejoin:round;
  stroke-width: 1.59341;
}
.l12{
  fill: #0000cc; fill-opacity: 0.5;
  stroke: #0000cc;
  stroke-linecap:round;
  stroke-linejoin:round;
  stroke-width: 1.59341;
}
.l13{
  fill: #666600; fill-opacity: 0.5;
  stroke: #666600;
  stroke-linecap:round;
  stroke-linejoin:round;
  stroke-width: 1.59341;
}
.l14{
  fill: #557755; fill-opacity: 0.2;
  stroke: #557755;
  stroke-linecap:round;
  stroke-linejoin:round;
  stroke-width: 1.59341;
}
.l15{
  fill: #aa2222; fill-opacity: 0.5;
  stroke: #aa2222;
  stroke-linecap:round;
  stroke-linejoin:round;
  stroke-width: 1.59341;
}
.l16{
  fill: #7ccc40; fill-opacity: 0.5;
  stroke: #7ccc40;
  stroke-linecap:round;
  stroke-linejoin:round;
  stroke-width: 1.59341;
}
.l17{
  fill: #00ffcc; fill-opacity: 0.2;
  stroke: #00ffcc;
  stroke-linecap:round;
  stroke-linejoin:round;
  stroke-width: 1.59341;
}
.l18{
  fill: #ce0097; fill-opacity: 0.5;
  stroke: #ce0097;
  stroke-linecap:round;
  stroke-linejoin:round;
  stroke-width: 1.59341;
}
.l19{
  fill: #d2d46b; fill-opacity: 0.2;
  stroke: #d2d46b;
  stroke-linecap:round;
  stroke-linejoin:round;
  stroke-width: 1.59341;
}
.l20{
  fill: #ef6158; fill-opacity: 0.2;
  stroke: #ef6158;
  stroke-linecap:round;
  stroke-linejoin:round;
  stroke-width: 1.59341;
}
.l21{
  fill: #fdb200; fill-opacity: 0.2;
  stroke: #fdb200;
  stroke-linecap:round;
  stroke-linejoin:round;
  stroke-width: 1.59341;
}
text {font-family: Sans-Serif;}
</style>
<rect class="l0" x="0" y="0" width="1280" height="627"/>
<path class="l4" d="M760.981 88.338L760.981 141.452"/>
<path class="l4" d="M775.735 79.4857L775.735 94.2396"/>
<path class="l4" d="M775.735 135.55L775.735 150.304"/>
<path class="l4" d="M755.08 97.1903L755.08 132.6"/>
<path class="l4" d="M760.981 135.55L775.735 135.55"/>
<path class="l4" d="M766.883 94.2396L775.735 94.2396"/>
<path class="l4" d="M728.523 114.895L743.277 114.895"/>
<path class="l4" d="M766.883 91.2888L760.981 94.2396L766.883 97.1903L766.883 91.2888"/>
<circle class="l4" cx="749.178" cy="114.895" r="5.90153" style="fill:none;" />
<path class="l4" d="M589.837 88.338L589.837 141.452"/>
<path class="l4" d="M575.083 79.4857L575.083 94.2396"/>
<path class="l4" d="M575.083 135.55L575.083 150.304"/>
<path class="l4" d="M595.738 97.1903L595.738 132.6"/>
<path class="l4" d="M575.083 135.55L589.837 135.55"/>
<path class="l4" d="M575.083 94.2396L583.935 94.2396"/>
<path class="l4" d="M607.542 114.895L622.295 114.895"/>
<path class="l4" d="M583.935 91.2888L589.837 94.2396L583.935 97.1903L583.935 91.2888"/>
<circle class="l4" cx="601.64" cy="114.895" r="5.90153" style="fill:none;" />
<path class="l4" d="M790.489 241.778L790.489 294.892"/>
<path class="l4" d="M796.391 268.335L822.948 268.335"/>
<path class="l4" d="M775.735 232.926L775.735 247.679"/>
<path class="l4" d="M775.735 288.99L775.735 303.744"/>
<path class="l4" d="M796.391 250.63L796.391 286.039"/>
<path class="l4" d="M775.735 247.679L790.489 247.679"/>
<path class="l4" d="M781.637 288.99L790.489 288.99"/>
<path class="l4" d="M781.637 286.039L775.735 288.99L781.637 291.941L781.637 286.039"/>
<path class="l4" d="M560.329 241.778L560.329 294.892"/>
<path class="l4" d="M527.871 268.335L554.428 268.335"/>
<path class="l4" d="M575.083 232.926L575.083 247.679"/>
<path class="l4" d="M575.083 288.99L575.083 303.744"/>
<path class="l4" d="M554.428 250.63L554.428 286.039"/>
<path class="l4" d="M560.329 247.679L575.083 247.679"/>
<path class="l4" d="M560.329 288.99L569.182 288.99"/>
<path class="l4" d="M569.182 286.039L575.083 288.99L569.182 291.941L569.182 286.039"/>
<path class="l4" d="M666.557 371.612L666.557 424.725"/>
<path class="l4" d="M634.098 398.169L660.655 398.169"/>
<path class="l4" d="M681.311 362.759L681.311 377.513"/>
<path class="l4" d="M681.311 418.824L681.311 433.578"/>
<path class="l4" d="M660.655 380.464L660.655 415.873"/>
<path class="l4" d="M666.557 377.513L681.311 377.513"/>
<path class="l4" d="M666.557 418.824L675.409 418.824"/>
<path class="l4" d="M675.409 415.873L681.311 418.824L675.409 421.775L675.409 415.873"/>
<path class="l4" d="M389.185 159.156L389.185 212.27"/>
<path class="l4" d="M374.431 150.304L374.431 165.058"/>
<path class="l4" d="M374.431 206.369L374.431 221.123"/>
<path class="l4" d="M395.086 168.009L395.086 203.418"/>
<path class="l4" d="M374.431 206.369L389.185 206.369"/>
<path class="l4" d="M374.431 165.058L383.283 165.058"/>
<path class="l4" d="M406.889 185.713L421.643 185.713"/>
<path class="l4" d="M383.283 162.107L389.185 165.058L383.283 168.009L383.283 162.107"/>
<circle class="l4" cx="400.988" cy="185.713" r="5.90153" style="fill:none;" />
<path class="l4" d="M1032.45 159.156L1032.45 212.27"/>
<path class="l4" d="M1047.21 150.304L1047.21 165.058"/>
<path class="l4" d="M1047.21 206.369L1047.21 221.123"/>
<path class="l4" d="M1026.55 168.009L1026.55 203.418"/>
<path class="l4" d="M1032.45 206.369L1047.21 206.369"/>
<path class="l4" d="M1038.35 165.058L1047.21 165.058"/>
<path class="l4" d="M999.994 185.713L1014.75 185.713"/>
<path class="l4" d="M1038.35 162.107L1032.45 165.058L1038.35 168.009L1038.35 162.107"/>
<circle class="l4" cx="1020.65" cy="185.713" r="5.90153" style="fill:none;" />
<path class="l4" d="M389.185 466.036L389.185 519.15"/>
<path class="l4" d="M395.086 492.593L421.643 492.593"/>
<path class="l4" d="M374.431 457.184L374.431 471.938"/>
<path class="l4" d="M374.431 513.248L374.431 528.002"/>
<path class="l4" d="M395.086 474.889L395.086 510.298"/>
<path class="l4" d="M374.431 471.938L389.185 471.938"/>
<path class="l4" d="M380.332 513.248L389.185 513.248"/>
<path class="l4" d="M380.332 510.298L374.431 513.248L380.332 516.199L380.332 510.298"/>
<path class="l4" d="M1032.45 454.233L1032.45 507.347"/>
<path class="l4" d="M999.994 480.79L1026.55 480.79"/>
<path class="l4" d="M1047.21 445.381L1047.21 460.135"/>
<path class="l4" d="M1047.21 501.445L1047.21 516.199"/>
<path class="l4" d="M1026.55 463.085L1026.55 498.495"/>
<path class="l4" d="M1032.45 460.135L1047.21 460.135"/>
<path class="l4" d="M1032.45 501.445L1041.3 501.445"/>
<path class="l4" d="M1041.3 498.495L1047.21 501.445L1041.3 504.396L1041.3 498.495"/>
<path class="l4" d="M235.745 371.612L235.745 424.725"/>
<path class="l4" d="M241.646 398.169L268.203 398.169"/>
<path class="l4" d="M220.991 362.759L220.991 377.513"/>
<path class="l4" d="M220.991 418.824L220.991 433.578"/>
<path class="l4" d="M241.646 380.464L241.646 415.873"/>
<path class="l4" d="M220.991 377.513L235.745 377.513"/>
<path class="l4" d="M226.893 418.824L235.745 418.824"/>
<path class="l4" d="M226.893 415.873L220.991 418.824L226.893 421.775L226.893 415.873"/>
<path class="l2" stroke-dasharray="4.95729,4.95729" d="M150.173 256.532L150.173 268.335"/>
<path class="l2" stroke-dasharray="4.95729,4.95729" d="M150.173 256.532L159.025 253.581"/>
<path class="l2" stroke-dasharray="4.95729,4.95729" d="M141.32 247.679L159.025 253.581"/>
<path class="l2" stroke-dasharray="4.95729,4.95729" d="M141.32 247.679L159.025 241.778"/>
<path class="l2" stroke-dasharray="4.95729,4.95729" d="M141.32 235.876L159.025 241.778"/>
<path class="l2" stroke-dasharray="4.95729,4.95729" d="M141.32 235.876L159.025 229.975"/>
<path class="l2" stroke-dasharray="4.95729,4.95729" d="M141.32 224.073L159.025 229.975"/>
<path class="l2" stroke-dasharray="4.95729,4.95729" d="M141.32 224.073L159.025 218.172"/>
<path class="l2" stroke-dasharray="4.95729,4.95729" d="M141.32 212.27L159.025 218.172"/>
<path class="l2" stroke-dasharray="4.95729,4.95729" d="M141.32 212.27L150.173 209.319"/>
<path class="l2" stroke-dasharray="4.95729,4.95729" d="M150.173 197.516L150.173 209.319"/>
<path class="l2" stroke-dasharray="4.95729,4.95729" d="M153.123 206.369L159.025 206.369"/>
<path class="l2" stroke-dasharray="4.95729,4.95729" d="M156.074 203.418L156.074 209.319"/>
<path class="l4" d="M220.991 185.713L220.991 197.516"/>
<path class="l4" d="M220.991 185.713L229.843 182.763"/>
<path class="l4" d="M212.139 176.861L229.843 182.763"/>
<path class="l4" d="M212.139 176.861L229.843 170.96"/>
<path class="l4" d="M212.139 165.058L229.843 170.96"/>
<path class="l4" d="M212.139 165.058L229.843 159.156"/>
<path class="l4" d="M212.139 153.255L229.843 159.156"/>
<path class="l4" d="M212.139 153.255L229.843 147.353"/>
<path class="l4" d="M212.139 141.452L229.843 147.353"/>
<path class="l4" d="M212.139 141.452L220.991 138.501"/>
<path class="l4" d="M220.991 126.698L220.991 138.501"/>
<path class="l5" d="M769.834 111.944L775.735 114.895L769.834 117.846L769.834 111.944"/>
<path class="l5" d="M772.785 147.353L778.686 147.353L778.686 153.255L772.785 153.255L772.785 147.353z"/>
<path class="l5" d="M725.572 111.944L731.474 111.944L731.474 117.846L725.572 117.846L725.572 111.944z"/>
<path class="l5" d="M772.785 76.535L778.686 76.535L778.686 82.4365L772.785 82.4365L772.785 76.535z"/>
<path class="l5" d="M775.643 114.803L775.828 114.803L775.828 114.987L775.643 114.987L775.643 114.803z"/>
<path class="l5" d="M580.985 111.944L575.083 114.895L580.985 117.846L580.985 111.944"/>
<path class="l5" d="M572.132 147.353L578.034 147.353L578.034 153.255L572.132 153.255L572.132 147.353z"/>
<path class="l5" d="M619.345 111.944L625.246 111.944L625.246 117.846L619.345 117.846L619.345 111.944z"/>
<path class="l5" d="M572.132 76.535L578.034 76.535L578.034 82.4365L572.132 82.4365L572.132 76.535z"/>
<path class="l5" d="M574.991 114.803L575.175 114.803L575.175 114.987L574.991 114.987L574.991 114.803z"/>
<path class="l5" d="M775.735 265.384L781.637 268.335L775.735 271.286L775.735 265.384"/>
<path class="l5" d="M772.785 229.975L778.686 229.975L778.686 235.876L772.785 235.876L772.785 229.975z"/>
<path class="l5" d="M819.997 265.384L825.898 265.384L825.898 271.286L819.997 271.286L819.997 265.384z"/>
<path class="l5" d="M772.785 300.793L778.686 300.793L778.686 306.695L772.785 306.695L772.785 300.793z"/>
<path class="l5" d="M775.643 268.243L775.828 268.243L775.828 268.427L775.643 268.427L775.643 268.243z"/>
<path class="l5" d="M575.083 265.384L569.182 268.335L575.083 271.286L575.083 265.384"/>
<path class="l5" d="M572.132 229.975L578.034 229.975L578.034 235.876L572.132 235.876L572.132 229.975z"/>
<path class="l5" d="M524.92 265.384L530.822 265.384L530.822 271.286L524.92 271.286L524.92 265.384z"/>
<path class="l5" d="M572.132 300.793L578.034 300.793L578.034 306.695L572.132 306.695L572.132 300.793z"/>
<path class="l5" d="M574.991 268.243L575.175 268.243L575.175 268.427L574.991 268.427L574.991 268.243z"/>
<path class="l5" d="M681.311 395.218L675.409 398.169L681.311 401.119L681.311 395.218"/>
<path class="l5" d="M678.36 359.809L684.262 359.809L684.262 365.71L678.36 365.71L678.36 359.809z"/>
<path class="l5" d="M631.148 395.218L637.049 395.218L637.049 401.119L631.148 401.119L631.148 395.218z"/>
<path class="l5" d="M678.36 430.627L684.262 430.627L684.262 436.529L678.36 436.529L678.36 430.627z"/>
<path class="l5" d="M681.219 398.076L681.403 398.076L681.403 398.261L681.219 398.261L681.219 398.076z"/>
<path class="l5" d="M380.332 182.763L374.431 185.713L380.332 188.664L380.332 182.763"/>
<path class="l5" d="M371.48 218.172L377.382 218.172L377.382 224.073L371.48 224.073L371.48 218.172z"/>
<path class="l5" d="M418.692 182.763L424.594 182.763L424.594 188.664L418.692 188.664L418.692 182.763z"/>
<path class="l5" d="M371.48 147.353L377.382 147.353L377.382 153.255L371.48 153.255L371.48 147.353z"/>
<path class="l5" d="M374.339 185.621L374.523 185.621L374.523 185.806L374.339 185.806L374.339 185.621z"/>
<path class="l5" d="M1041.3 182.763L1047.21 185.713L1041.3 188.664L1041.3 182.763"/>
<path class="l5" d="M1044.26 218.172L1050.16 218.172L1050.16 224.073L1044.26 224.073L1044.26 218.172z"/>
<path class="l5" d="M997.043 182.763L1002.94 182.763L1002.94 188.664L997.043 188.664L997.043 182.763z"/>
<path class="l5" d="M1044.26 147.353L1050.16 147.353L1050.16 153.255L1044.26 153.255L1044.26 147.353z"/>
<path class="l5" d="M1047.11 185.621L1047.3 185.621L1047.3 185.806L1047.11 185.806L1047.11 185.621z"/>
<path class="l5" d="M374.431 489.642L380.332 492.593L374.431 495.544L374.431 489.642"/>
<path class="l5" d="M371.48 454.233L377.382 454.233L377.382 460.135L371.48 460.135L371.48 454.233z"/>
<path class="l5" d="M418.692 489.642L424.594 489.642L424.594 495.544L418.692 495.544L418.692 489.642z"/>
<path class="l5" d="M371.48 525.052L377.382 525.052L377.382 530.953L371.48 530.953L371.48 525.052z"/>
<path class="l5" d="M374.339 492.501L374.523 492.501L374.523 492.685L374.339 492.685L374.339 492.501z"/>
<path class="l5" d="M1047.21 477.839L1041.3 480.79L1047.21 483.741L1047.21 477.839"/>
<path class="l5" d="M1044.26 442.43L1050.16 442.43L1050.16 448.332L1044.26 448.332L1044.26 442.43z"/>
<path class="l5" d="M997.043 477.839L1002.94 477.839L1002.94 483.741L997.043 483.741L997.043 477.839z"/>
<path class="l5" d="M1044.26 513.248L1050.16 513.248L1050.16 519.15L1044.26 519.15L1044.26 513.248z"/>
<path class="l5" d="M1047.11 480.698L1047.3 480.698L1047.3 480.882L1047.11 480.882L1047.11 480.698z"/>
<path class="l5" d="M220.991 395.218L226.893 398.169L220.991 401.119L220.991 395.218"/>
<path class="l5" d="M218.04 359.809L223.942 359.809L223.942 365.71L218.04 365.71L218.04 359.809z"/>
<path class="l5" d="M265.253 395.218L271.154 395.218L271.154 401.119L265.253 401.119L265.253 395.218z"/>
<path class="l5" d="M218.04 430.627L223.942 430.627L223.942 436.529L218.04 436.529L218.04 430.627z"/>
<path class="l5" d="M220.899 398.076L221.083 398.076L221.083 398.261L220.899 398.261L220.899 398.076z"/>
<path class="l2" stroke-dasharray="4.95729,4.95729" d="M147.222 194.566L153.123 194.566L153.123 200.467L147.222 200.467L147.222 194.566z"/>
<path class="l2" stroke-dasharray="4.95729,4.95729" d="M147.222 265.384L153.123 265.384L153.123 271.286L147.222 271.286L147.222 265.384z"/>
<path class="l5" d="M645.902 20.4704L649.59 20.4704"/>
<path class="l5" d="M662.131 26.3719L666.557 20.4704L662.131 14.5688L654.016 14.5688L649.59 20.4704L654.016 26.3719L662.131 26.3719"/>
<path class="l5" d="M644.426 18.995L647.377 18.995L647.377 21.9458L644.426 21.9458L644.426 18.995z"/>
<path class="l5" d="M645.902 598.821L649.59 598.821"/>
<path class="l5" d="M662.131 604.722L666.557 598.821L662.131 592.919L654.016 592.919L649.59 598.821L654.016 604.722L662.131 604.722"/>
<path class="l5" d="M644.426 597.345L647.377 597.345L647.377 600.296L644.426 600.296L644.426 597.345z"/>
<path class="l5" d="M374.431 339.153L378.119 339.153"/>
<path class="l5" d="M390.66 345.055L395.086 339.153L390.66 333.252L382.546 333.252L378.119 339.153L382.546 345.055L390.66 345.055"/>
<path class="l5" d="M372.956 337.678L375.906 337.678L375.906 340.629L372.956 340.629L372.956 337.678z"/>
<path class="l5" d="M1043.52 327.35L1047.21 327.35"/>
<path class="l5" d="M1030.98 333.252L1026.55 327.35L1030.98 321.449L1039.09 321.449L1043.52 327.35L1039.09 333.252L1030.98 333.252"/>
<path class="l5" d="M1045.73 325.875L1048.68 325.875L1048.68 328.826L1045.73 328.826L1045.73 325.875z"/>
<path class="l5" d="M492.462 268.335L492.462 272.023"/>
<path class="l5" d="M486.56 284.564L492.462 288.99L498.363 284.564L498.363 276.449L492.462 272.023L486.56 276.449L486.56 284.564"/>
<path class="l5" d="M490.986 266.859L493.937 266.859L493.937 269.81L490.986 269.81L490.986 266.859z"/>
<path class="l5" d="M846.554 268.335L846.554 272.023"/>
<path class="l5" d="M840.652 284.564L846.554 288.99L852.455 284.564L852.455 276.449L846.554 272.023L840.652 276.449L840.652 284.564"/>
<path class="l5" d="M845.078 266.859L848.029 266.859L848.029 269.81L845.078 269.81L845.078 266.859z"/>
<path class="l5" d="M669.508 114.895L669.508 118.583"/>
<path class="l5" d="M663.606 131.124L669.508 135.55L675.409 131.124L675.409 123.01L669.508 118.583L663.606 123.01L663.606 131.124"/>
<path class="l5" d="M668.032 113.42L670.983 113.42L670.983 116.37L668.032 116.37L668.032 113.42z"/>
<path class="l5" d="M445.249 492.593L445.249 496.282"/>
<path class="l5" d="M439.348 508.822L445.249 513.248L451.151 508.822L451.151 500.708L445.249 496.282L439.348 500.708L439.348 508.822"/>
<path class="l5" d="M443.774 491.118L446.725 491.118L446.725 494.069L443.774 494.069L443.774 491.118z"/>
<path class="l5" d="M963.109 479.315L966.06 479.315L966.06 482.265L963.109 482.265L963.109 479.315z"/>
<path class="l5" d="M668.032 266.859L670.983 266.859L670.983 269.81L668.032 269.81L668.032 266.859z"/>
<path class="l5" d="M573.608 184.238L576.559 184.238L576.559 187.189L573.608 187.189L573.608 184.238z"/>
<path class="l5" d="M774.26 184.238L777.211 184.238L777.211 187.189L774.26 187.189L774.26 184.238z"/>
<path class="l5" d="M218.04 194.566L223.942 194.566L223.942 200.467L218.04 200.467L218.04 194.566z"/>
<path class="l5" d="M218.04 123.747L223.942 123.747L223.942 129.649L218.04 129.649L218.04 123.747z"/>
<text fill="#222222"  xml:space="preserve" font-size="12.2752" transform="translate(739.031, 90.6316)" >M1</text>
<text fill="#ff0000"  xml:space="preserve" font-size="9.20639" transform="translate(778.686, 143.91)" >D</text>
<text fill="#ff0000"  xml:space="preserve" font-size="9.20639" transform="translate(778.686, 92.0392)" >S</text>
<text fill="#ff0000"  xml:space="preserve" font-size="9.20639" transform="translate(775.735, 111.451)" >B</text>
<text fill="#ff0000"  xml:space="preserve" font-size="9.20639" transform="translate(733.326, 111.451)" >G</text>
<text fill="#222222"  xml:space="preserve" font-size="12.2752" transform="translate(787.538, 101.633)" >pfet_01v8</text>
<text fill="#666600"  xml:space="preserve" font-size="12.2752" transform="translate(789.014, 142.27)" >1 x 2.27 / 0.15</text>
<text fill="#666600"  xml:space="preserve" font-size="12.2752" transform="translate(789.014, 127.516)" >nf=1</text>
<text fill="#222222"  xml:space="preserve" font-size="12.2752" transform="translate(592.788, 90.6316)" >M2</text>
<text fill="#ff0000"  xml:space="preserve" font-size="9.20639" transform="translate(565.132, 143.91)" >D</text>
<text fill="#ff0000"  xml:space="preserve" font-size="9.20639" transform="translate(566.132, 92.0392)" >S</text>
<text fill="#ff0000"  xml:space="preserve" font-size="9.20639" transform="translate(569.083, 111.451)" >B</text>
<text fill="#ff0000"  xml:space="preserve" font-size="9.20639" transform="translate(610.492, 111.451)" >G</text>
<text fill="#222222"  xml:space="preserve" font-size="12.2752" transform="translate(501.28, 101.633)" >pfet_01v8</text>
<text fill="#666600"  xml:space="preserve" font-size="12.2752" transform="translate(470.805, 142.27)" >1 x 2.27 / 0.15</text>
<text fill="#666600"  xml:space="preserve" font-size="12.2752" transform="translate(531.805, 127.516)" >nf=1</text>
<text fill="#222222"  xml:space="preserve" font-size="12.2752" transform="translate(793.44, 244.071)" >M3</text>
<text fill="#ff0000"  xml:space="preserve" font-size="9.20639" transform="translate(766.785, 297.35)" >S</text>
<text fill="#ff0000"  xml:space="preserve" font-size="9.20639" transform="translate(765.785, 245.479)" >D</text>
<text fill="#ff0000"  xml:space="preserve" font-size="9.20639" transform="translate(769.735, 264.891)" >B</text>
<text fill="#ff0000"  xml:space="preserve" font-size="9.20639" transform="translate(811.144, 264.891)" >G</text>
<text fill="#222222"  xml:space="preserve" font-size="12.2752" transform="translate(701.932, 255.073)" >nfet_01v8</text>
<text fill="#666600"  xml:space="preserve" font-size="12.2752" transform="translate(671.457, 295.71)" >1 x 0.86 / 0.15</text>
<text fill="#666600"  xml:space="preserve" font-size="12.2752" transform="translate(732.457, 280.956)" >nf=1</text>
<text fill="#222222"  xml:space="preserve" font-size="12.2752" transform="translate(538.379, 244.071)" >M4</text>
<text fill="#ff0000"  xml:space="preserve" font-size="9.20639" transform="translate(578.034, 297.35)" >S</text>
<text fill="#ff0000"  xml:space="preserve" font-size="9.20639" transform="translate(578.034, 245.479)" >D</text>
<text fill="#ff0000"  xml:space="preserve" font-size="9.20639" transform="translate(575.083, 264.891)" >B</text>
<text fill="#ff0000"  xml:space="preserve" font-size="9.20639" transform="translate(532.674, 264.891)" >G</text>
<text fill="#222222"  xml:space="preserve" font-size="12.2752" transform="translate(586.886, 255.073)" >nfet_01v8</text>
<text fill="#666600"  xml:space="preserve" font-size="12.2752" transform="translate(588.362, 295.71)" >1 x 0.86 / 0.15</text>
<text fill="#666600"  xml:space="preserve" font-size="12.2752" transform="translate(588.362, 280.956)" >nf=1</text>
<text fill="#222222"  xml:space="preserve" font-size="12.2752" transform="translate(644.606, 373.905)" >M5</text>
<text fill="#ff0000"  xml:space="preserve" font-size="9.20639" transform="translate(684.262, 427.183)" >S</text>
<text fill="#ff0000"  xml:space="preserve" font-size="9.20639" transform="translate(684.262, 375.313)" >D</text>
<text fill="#ff0000"  xml:space="preserve" font-size="9.20639" transform="translate(681.311, 394.725)" >B</text>
<text fill="#ff0000"  xml:space="preserve" font-size="9.20639" transform="translate(638.902, 394.725)" >G</text>
<text fill="#222222"  xml:space="preserve" font-size="12.2752" transform="translate(693.114, 384.907)" >nfet_01v8</text>
<text fill="#666600"  xml:space="preserve" font-size="12.2752" transform="translate(694.589, 425.544)" >1 x 0.49 / 0.15</text>
<text fill="#666600"  xml:space="preserve" font-size="12.2752" transform="translate(694.589, 410.79)" >nf=1</text>
<text fill="#222222"  xml:space="preserve" font-size="12.2752" transform="translate(392.136, 161.45)" >M6</text>
<text fill="#ff0000"  xml:space="preserve" font-size="9.20639" transform="translate(364.48, 214.728)" >D</text>
<text fill="#ff0000"  xml:space="preserve" font-size="9.20639" transform="translate(365.48, 162.858)" >S</text>
<text fill="#ff0000"  xml:space="preserve" font-size="9.20639" transform="translate(368.431, 182.27)" >B</text>
<text fill="#ff0000"  xml:space="preserve" font-size="9.20639" transform="translate(409.84, 182.27)" >G</text>
<text fill="#222222"  xml:space="preserve" font-size="12.2752" transform="translate(300.628, 172.452)" >pfet_01v8</text>
<text fill="#666600"  xml:space="preserve" font-size="12.2752" transform="translate(270.153, 213.088)" >1 x 56.9 / 0.15</text>
<text fill="#666600"  xml:space="preserve" font-size="12.2752" transform="translate(331.153, 198.335)" >nf=1</text>
<text fill="#222222"  xml:space="preserve" font-size="12.2752" transform="translate(1010.5, 161.45)" >M7</text>
<text fill="#ff0000"  xml:space="preserve" font-size="9.20639" transform="translate(1050.16, 214.728)" >D</text>
<text fill="#ff0000"  xml:space="preserve" font-size="9.20639" transform="translate(1050.16, 162.858)" >S</text>
<text fill="#ff0000"  xml:space="preserve" font-size="9.20639" transform="translate(1047.21, 182.27)" >B</text>
<text fill="#ff0000"  xml:space="preserve" font-size="9.20639" transform="translate(1004.8, 182.27)" >G</text>
<text fill="#222222"  xml:space="preserve" font-size="12.2752" transform="translate(1059.01, 172.452)" >pfet_01v8</text>
<text fill="#666600"  xml:space="preserve" font-size="12.2752" transform="translate(1060.48, 213.088)" >1 x 56.9 / 0.15</text>
<text fill="#666600"  xml:space="preserve" font-size="12.2752" transform="translate(1060.48, 198.335)" >nf=1</text>
<text fill="#222222"  xml:space="preserve" font-size="12.2752" transform="translate(392.136, 468.33)" >M8</text>
<text fill="#ff0000"  xml:space="preserve" font-size="9.20639" transform="translate(365.48, 521.608)" >S</text>
<text fill="#ff0000"  xml:space="preserve" font-size="9.20639" transform="translate(364.48, 469.737)" >D</text>
<text fill="#ff0000"  xml:space="preserve" font-size="9.20639" transform="translate(368.431, 489.149)" >B</text>
<text fill="#ff0000"  xml:space="preserve" font-size="9.20639" transform="translate(409.84, 489.149)" >G</text>
<text fill="#222222"  xml:space="preserve" font-size="12.2752" transform="translate(300.628, 479.332)" >nfet_01v8</text>
<text fill="#666600"  xml:space="preserve" font-size="12.2752" transform="translate(270.153, 519.968)" >1 x 1.34 / 0.15</text>
<text fill="#666600"  xml:space="preserve" font-size="12.2752" transform="translate(331.153, 505.214)" >nf=1</text>
<text fill="#222222"  xml:space="preserve" font-size="12.2752" transform="translate(1010.5, 456.527)" >M9</text>
<text fill="#ff0000"  xml:space="preserve" font-size="9.20639" transform="translate(1050.16, 509.805)" >S</text>
<text fill="#ff0000"  xml:space="preserve" font-size="9.20639" transform="translate(1050.16, 457.934)" >D</text>
<text fill="#ff0000"  xml:space="preserve" font-size="9.20639" transform="translate(1047.21, 477.346)" >B</text>
<text fill="#ff0000"  xml:space="preserve" font-size="9.20639" transform="translate(1004.8, 477.346)" >G</text>
<text fill="#222222"  xml:space="preserve" font-size="12.2752" transform="translate(1059.01, 467.529)" >nfet_01v8</text>
<text fill="#666600"  xml:space="preserve" font-size="12.2752" transform="translate(1060.48, 508.165)" >1 x 1.34 / 0.15</text>
<text fill="#666600"  xml:space="preserve" font-size="12.2752" transform="translate(1060.48, 493.411)" >nf=1</text>
<text fill="#222222"  xml:space="preserve" font-size="12.2752" transform="translate(238.696, 373.905)" >M10</text>
<text fill="#ff0000"  xml:space="preserve" font-size="9.20639" transform="translate(212.04, 427.183)" >S</text>
<text fill="#ff0000"  xml:space="preserve" font-size="9.20639" transform="translate(211.04, 375.313)" >D</text>
<text fill="#ff0000"  xml:space="preserve" font-size="9.20639" transform="translate(214.991, 394.725)" >B</text>
<text fill="#ff0000"  xml:space="preserve" font-size="9.20639" transform="translate(256.4, 394.725)" >G</text>
<text fill="#222222"  xml:space="preserve" font-size="12.2752" transform="translate(147.188, 384.907)" >nfet_01v8</text>
<text fill="#666600"  xml:space="preserve" font-size="12.2752" transform="translate(128.713, 425.544)" >1 x 29 / 0.15</text>
<text fill="#666600"  xml:space="preserve" font-size="12.2752" transform="translate(177.713, 410.79)" >nf=1</text>
<text fill="#aaaaaa"  xml:space="preserve" font-size="12.2752" transform="translate(130.37, 213.088)" >1</text>
<text fill="#aaaaaa"  xml:space="preserve" font-size="12.2752" transform="translate(130.37, 263.251)" >2</text>
<text fill="#aaaaaa"  xml:space="preserve" font-size="12.2752" transform="translate(167.877, 221.941)" >R1</text>
<text fill="#aaaaaa"  xml:space="preserve" font-size="12.2752" transform="translate(167.877, 236.695)" >193.7</text>
<text fill="#aaaaaa"  xml:space="preserve" font-size="12.2752" transform="translate(167.877, 251.448)" >m=1</text>
<text fill="#0055ee"  xml:space="preserve" font-size="20.2541" transform="translate(669.323, 27.7957)" >vdd</text>
<text fill="#0055ee"  xml:space="preserve" font-size="20.2541" transform="translate(669.323, 606.146)" >gnd</text>
<text fill="#0055ee"  xml:space="preserve" font-size="20.2541" transform="translate(397.853, 346.479)" >vout1</text>
<text fill="#0055ee"  xml:space="preserve" font-size="20.2541" transform="translate(965.784, 334.675)" >vout2</text>
<text fill="#0055ee"  xml:space="preserve" font-size="20.2541" transform="translate(498.686, 335.757) rotate(270)" >vin1</text>
<text fill="#0055ee"  xml:space="preserve" font-size="20.2541" transform="translate(852.778, 335.757) rotate(270)" >vin2</text>
<text fill="#0055ee"  xml:space="preserve" font-size="20.2541" transform="translate(675.732, 176.317) rotate(270)" >vb1</text>
<text fill="#0055ee"  xml:space="preserve" font-size="20.2541" transform="translate(451.474, 554.015) rotate(270)" >vb2</text>
<text fill="#0055ee"  xml:space="preserve" font-size="20.2541" transform="translate(917.732, 489.591)" >vb2</text>
<text fill="#0055ee"  xml:space="preserve" font-size="20.2541" transform="translate(674.257, 259.483) rotate(270)" >gnd</text>
<text fill="#0055ee"  xml:space="preserve" font-size="20.2541" transform="translate(583.935, 190.463)" >Y</text>
<text fill="#0055ee"  xml:space="preserve" font-size="20.2541" transform="translate(752.883, 190.463)" >X</text>
<text fill="#222222"  xml:space="preserve" font-size="12.2752" transform="translate(238.696, 140.795)" >R2</text>
<text fill="#666600"  xml:space="preserve" font-size="12.2752" transform="translate(238.696, 189.482)" >1 * 1 / 3.95</text>
<text fill="#222222"  xml:space="preserve" font-size="12.2752" transform="translate(238.696, 157.024)" >res_generic_po</text>
<text fill="#666600"  xml:space="preserve" font-size="12.2752" transform="translate(238.696, 173.253)" >R=190.4</text>
<path class="l1" d="M575.083 150.304L575.083 232.926"/>
<path class="l1" d="M775.735 150.304L775.735 232.926"/>
<path class="l1" d="M775.735 55.8796L775.735 79.4857"/>
<path class="l1" d="M575.083 55.8796L775.735 55.8796"/>
<path class="l1" d="M575.083 55.8796L575.083 79.4857"/>
<path class="l1" d="M575.083 303.744L575.083 315.547"/>
<path class="l1" d="M575.083 315.547L775.735 315.547"/>
<path class="l1" d="M775.735 303.744L775.735 315.547"/>
<path class="l1" d="M681.311 315.547L681.311 362.759"/>
<path class="l1" d="M681.311 433.578L681.311 457.184"/>
<path class="l1" d="M492.462 268.335L527.871 268.335"/>
<path class="l1" d="M822.948 268.335L846.554 268.335"/>
<path class="l1" d="M374.431 55.8796L374.431 79.4857"/>
<path class="l1" d="M374.431 55.8796L575.083 55.8796"/>
<path class="l1" d="M775.735 55.8796L1047.21 55.8796"/>
<path class="l1" d="M1047.21 55.8796L1047.21 79.4857"/>
<path class="l1" d="M374.431 79.4857L374.431 150.304"/>
<path class="l1" d="M421.643 185.713L575.083 185.713"/>
<path class="l1" d="M775.735 185.713L999.994 185.713"/>
<path class="l1" d="M1047.21 79.4857L1047.21 150.304"/>
<path class="l1" d="M374.431 221.123L374.431 457.184"/>
<path class="l1" d="M220.991 433.578L220.991 563.412"/>
<path class="l1" d="M220.991 563.412L374.431 563.412"/>
<path class="l1" d="M374.431 528.002L374.431 563.412"/>
<path class="l1" d="M374.431 563.412L681.311 563.412"/>
<path class="l1" d="M681.311 457.184L681.311 563.412"/>
<path class="l1" d="M681.311 563.412L1047.21 563.412"/>
<path class="l1" d="M1047.21 516.199L1047.21 563.412"/>
<path class="l1" d="M220.991 197.516L220.991 362.759"/>
<path class="l1" d="M220.991 55.8796L220.991 126.698"/>
<path class="l1" d="M220.991 55.8796L374.431 55.8796"/>
<path class="l1" d="M1047.21 221.123L1047.21 445.381"/>
<path class="l1" d="M268.203 398.169L634.098 398.169"/>
<path class="l1" d="M220.991 327.35L303.613 327.35"/>
<path class="l1" d="M303.613 327.35L303.613 398.169"/>
<path class="l1" d="M645.902 20.4704L645.902 55.8796"/>
<path class="l1" d="M645.902 563.412L645.902 598.821"/>
<path class="l1" d="M622.295 114.895L728.523 114.895"/>
<path class="l1" d="M421.643 492.593L445.249 492.593"/>
<path class="l1" d="M964.584 480.79L999.994 480.79"/>
<path class="l1" d="M374.431 150.304L374.431 185.713"/>
<path class="l1" d="M575.083 79.4857L575.083 114.895"/>
<path class="l1" d="M775.735 79.4857L775.735 114.895"/>
<path class="l1" d="M1047.21 150.304L1047.21 185.713"/>
<path class="l1" d="M575.083 268.335L775.735 268.335"/>
<path class="l1" d="M1047.21 480.79L1047.21 516.199"/>
<path class="l1" d="M374.431 492.593L374.431 528.002"/>
<path class="l1" d="M681.311 398.169L681.311 445.381"/>
<path class="l1" d="M220.991 398.169L220.991 457.184"/>
<circle class="l1" cx="303.613" cy="398.169" r="4.36714"/>
<circle class="l1" cx="220.991" cy="327.35" r="4.36714"/>
<circle class="l1" cx="374.431" cy="55.8796" r="4.36714"/>
<circle class="l1" cx="575.083" cy="185.713" r="4.36714"/>
<circle class="l1" cx="374.431" cy="55.8796" r="4.36714"/>
<circle class="l1" cx="575.083" cy="55.8796" r="4.36714"/>
<circle class="l1" cx="374.431" cy="55.8796" r="4.36714"/>
<circle class="l1" cx="220.991" cy="457.184" r="4.36714"/>
<circle class="l1" cx="374.431" cy="563.412" r="4.36714"/>
<circle class="l1" cx="681.311" cy="563.412" r="4.36714"/>
<circle class="l1" cx="374.431" cy="563.412" r="4.36714"/>
<circle class="l1" cx="374.431" cy="563.412" r="4.36714"/>
<circle class="l1" cx="220.991" cy="433.578" r="4.36714"/>
<circle class="l1" cx="645.902" cy="55.8796" r="4.36714"/>
<circle class="l1" cx="775.735" cy="185.713" r="4.36714"/>
<circle class="l1" cx="775.735" cy="55.8796" r="4.36714"/>
<circle class="l1" cx="681.311" cy="315.547" r="4.36714"/>
<circle class="l1" cx="575.083" cy="55.8796" r="4.36714"/>
<circle class="l1" cx="575.083" cy="55.8796" r="4.36714"/>
<circle class="l1" cx="775.735" cy="55.8796" r="4.36714"/>
<circle class="l1" cx="775.735" cy="55.8796" r="4.36714"/>
<circle class="l1" cx="681.311" cy="445.381" r="4.36714"/>
<circle class="l1" cx="645.902" cy="563.412" r="4.36714"/>
<circle class="l1" cx="681.311" cy="563.412" r="4.36714"/>
<circle class="l1" cx="681.311" cy="563.412" r="4.36714"/>
<circle class="l1" cx="681.311" cy="433.578" r="4.36714"/>
</svg>
